<?xml version="1.0" encoding="utf-8"?>
<!-- Generator: Adobe Illustrator 22.0.0, SVG Export Plug-In . SVG Version: 6.00 Build 0)  -->
<svg version="1.1" id="Layer_1" xmlns="http://www.w3.org/2000/svg" xmlns:xlink="http://www.w3.org/1999/xlink" x="0px" y="0px"
	 viewBox="0 0 431.8 517" style="enable-background:new 0 0 431.8 517;" xml:space="preserve">
<style type="text/css">
	.st0{fill:none;stroke:#FF9811;stroke-width:1.6;}
</style>
<title>Geo Pattern Right</title>
<desc>Created with Sketch.</desc>
<g id="Home">
	<g id="GoCrypto_Homepage" transform="translate(-764.000000, -1478.000000)">
		
			<g id="Geo-Pattern-Right" transform="translate(980.000000, 1736.500000) scale(-1, 1) translate(-980.000000, -1736.500000) translate(765.000000, 1478.000000)">
			<polyline id="Stroke-1" class="st0" points="0.3,344.5 86.3,258.5 172.2,344.5 86.3,430.5 			"/>
			<polygon id="Stroke-3" class="st0" points="258.1,430.5 172.2,344.5 258.1,258.5 344,344.5 			"/>
			<polygon id="Stroke-4" class="st0" points="344,344.5 258.1,258.5 344,172.5 429.9,258.5 			"/>
			<polyline id="Stroke-6" class="st0" points="344,516.5 258.1,430.5 344,344.5 429.9,430.5 			"/>
			<polygon id="Stroke-11" class="st0" points="172.2,344.5 86.3,258.5 172.2,172.5 258.1,258.5 			"/>
			<polygon id="Stroke-12" class="st0" points="86.3,258.5 0.3,172.5 86.3,86.6 172.2,172.5 			"/>
			<polyline id="Stroke-14" class="st0" points="172.2,0.6 258.1,86.5 172.2,172.5 86.3,86.5 			"/>
		</g>
	</g>
</g>
</svg>
