<svg id="Layer_1" data-name="Layer 1" xmlns="http://www.w3.org/2000/svg" viewBox="0 0 431.78 517.04">
  <title>home-header</title>
  <g id="Home">
    <g id="GoCrypto_Homepage" data-name="GoCrypto Homepage">
      <g id="Group-3">
        <g id="Security">
          <path id="Stroke-1259" d="M166.79,71.52A2.76,2.76,0,1,1,164,68.76,2.76,2.76,0,0,1,166.79,71.52Z" transform="translate(-0.2 0)" style="fill: none;stroke: #0b08b2;stroke-linecap: round;stroke-linejoin: round;stroke-width: 1.3793103694915771px"/>
          <path id="Stroke-1261" d="M159.9,100.48v2.07L164,106l4.14-3.45V88.76h2.76l-.8-2a11.34,11.34,0,0,0,4.94-9.42,11,11,0,1,0-22.07,0,11.34,11.34,0,0,0,4.94,9.42l-.8,2h2.76v1.38l1.38,2-1.38,1.74,1.38,1.74L159.9,97.3,161.28,99Z" transform="translate(-0.2 0)" style="fill: none;stroke: #0b08b2;stroke-linecap: round;stroke-linejoin: round;stroke-width: 1.3793103694915771px"/>
          <polyline id="Stroke-1263" points="172.11 84.76 172.11 93.59 177.63 93.59 177.63 83.93 184.52 83.93 184.52 93.59 190.04 93.59 190.04 82.55 192.8 82.55 181.07 72.9 174.82 78.05" style="fill: none;stroke: #0b08b2;stroke-linecap: round;stroke-linejoin: round;stroke-width: 1.3793103694915771px"/>
        </g>
        <g id="BitCoin">
          <path id="Stroke-98" d="M107,173a20,20,0,1,1-20-20A20,20,0,0,1,107,173Z" transform="translate(-0.2 0)" style="fill: none;stroke: #0b08b2;stroke-linecap: round;stroke-linejoin: round;stroke-width: 1.3793103694915771px"/>
          <path id="Stroke-100" d="M101.48,173A14.48,14.48,0,1,1,87,158.52,14.48,14.48,0,0,1,101.48,173Z" transform="translate(-0.2 0)" style="fill: none;stroke: #0b08b2;stroke-linecap: round;stroke-linejoin: round;stroke-width: 1.3793103694915771px"/>
          <path id="Stroke-102" d="M84.93,165.41v1.38" transform="translate(-0.2 0)" style="fill: none;stroke: #0b08b2;stroke-linecap: round;stroke-linejoin: round;stroke-width: 1.3793103694915771px"/>
          <path id="Stroke-104" d="M89.07,165.41v1.91" transform="translate(-0.2 0)" style="fill: none;stroke: #0b08b2;stroke-linecap: round;stroke-linejoin: round;stroke-width: 1.3793103694915771px"/>
          <path id="Stroke-106" d="M84.93,179.21v1.38" transform="translate(-0.2 0)" style="fill: none;stroke: #0b08b2;stroke-linecap: round;stroke-linejoin: round;stroke-width: 1.3793103694915771px"/>
          <path id="Stroke-108" d="M89.07,179.19v1.4" transform="translate(-0.2 0)" style="fill: none;stroke: #0b08b2;stroke-linecap: round;stroke-linejoin: round;stroke-width: 1.3793103694915771px"/>
          <path id="Stroke-110" d="M87.34,166.79H83.55V173h3.79a3.11,3.11,0,1,0,0-6.21Z" transform="translate(-0.2 0)" style="fill: none;stroke: #0b08b2;stroke-linecap: round;stroke-linejoin: round;stroke-width: 1.3793103694915771px"/>
          <path id="Stroke-112" d="M88.72,173H83.55v6.21h5.17a3.11,3.11,0,1,0,0-6.21Z" transform="translate(-0.2 0)" style="fill: none;stroke: #0b08b2;stroke-linecap: round;stroke-linejoin: round;stroke-width: 1.3793103694915771px"/>
          <path id="Stroke-114" d="M83.55,166.79H82.17" transform="translate(-0.2 0)" style="fill: none;stroke: #0b08b2;stroke-linecap: round;stroke-linejoin: round;stroke-width: 1.3793103694915771px"/>
          <path id="Stroke-116" d="M83.55,179.21H82.17" transform="translate(-0.2 0)" style="fill: none;stroke: #0b08b2;stroke-linecap: round;stroke-linejoin: round;stroke-width: 1.3793103694915771px"/>
        </g>
        <path id="Takeoff" d="M94.24,342.8a47.71,47.71,0,0,0-4.4,3.22H72.68l-3,3,12.13,3.72c-2.18,1.91-4.45,3.62-6.33,5.32l-6.86-1.59L67,358l3.44,4.89h0l-.18.17a1.68,1.68,0,0,0-.06,2.42,1.62,1.62,0,0,0,1.77.37c3.15-1.24,13-5.25,19.56-9.71a83.82,83.82,0,0,0,13.29-10.74c1.33-1.34,2.67-4,2-4.68S100.87,338.77,94.24,342.8Z" transform="translate(-0.2 0)" style="fill: none;stroke: #0b08b2;stroke-linecap: round;stroke-linejoin: round;stroke-width: 1.4822306632995605px"/>
        <g id="Email">
          <path id="Stroke-166" d="M185,258.77V248.13a2.1,2.1,0,0,0-2.09-2.13H155.09a2.1,2.1,0,0,0-2.09,2.13v18.44a2.1,2.1,0,0,0,2.09,2.13h21.69" transform="translate(-0.2 0)" style="fill: none;stroke: #0b08b2;stroke-linecap: round;stroke-linejoin: round;stroke-width: 1.3793103694915771px"/>
          <path id="Stroke-168" d="M153,246.81,165.08,258a3.66,3.66,0,0,0,2.48,1,3.62,3.62,0,0,0,2.35-.86l13.49-11.3" transform="translate(-0.2 0)" style="fill: none;stroke: #0b08b2;stroke-linecap: round;stroke-linejoin: round;stroke-width: 1.3793103694915771px"/>
          <path id="Stroke-170" d="M176.2,267.49a8.4,8.4,0,1,1,8.4,8.51A8.46,8.46,0,0,1,176.2,267.49Z" transform="translate(-0.2 0)" style="fill: none;stroke: #0b08b2;stroke-linecap: round;stroke-linejoin: round;stroke-width: 1.3793103694915771px"/>
          <path id="Stroke-172" d="M189.8,272.76a2,2,0,0,0-.38-.27,10.77,10.77,0,0,0-10.44,0,2,2,0,0,0-.38.27" transform="translate(-0.2 0)" style="fill: none;stroke: #0b08b2;stroke-linecap: round;stroke-linejoin: round;stroke-width: 1.3793103694915771px"/>
          <path id="Stroke-174" d="M188.2,265.86a3.6,3.6,0,1,1-3.6-3.64A3.62,3.62,0,0,1,188.2,265.86Z" transform="translate(-0.2 0)" style="fill: none;stroke: #0b08b2;stroke-linecap: round;stroke-linejoin: round;stroke-width: 1.3793103694915771px"/>
        </g>
        <g id="BarCode">
          <path id="Stroke-194" d="M257.6,172.59v4.87" transform="translate(-0.2 0)" style="fill: none;stroke: #0b08b2;stroke-linecap: round;stroke-linejoin: round;stroke-width: 1.3793103694915771px"/>
          <path id="Stroke-195" d="M240,172.59h40" transform="translate(-0.2 0)" style="fill: none;stroke: #0b08b2;stroke-linecap: round;stroke-linejoin: round;stroke-width: 1.3793103694915771px"/>
          <path id="Stroke-196" d="M240,163.68v-3.55a2.11,2.11,0,0,1,2.1-2.13h3.5" transform="translate(-0.2 0)" style="fill: none;stroke: #0b08b2;stroke-linecap: round;stroke-linejoin: round;stroke-width: 1.3793103694915771px"/>
          <path id="Stroke-198" d="M245.6,188h-3.5a2.11,2.11,0,0,1-2.1-2.13v-3.55" transform="translate(-0.2 0)" style="fill: none;stroke: #0b08b2;stroke-linecap: round;stroke-linejoin: round;stroke-width: 1.3793103694915771px"/>
          <path id="Stroke-200" d="M280,182.32v3.55a2.11,2.11,0,0,1-2.1,2.13h-3.5" transform="translate(-0.2 0)" style="fill: none;stroke: #0b08b2;stroke-linecap: round;stroke-linejoin: round;stroke-width: 1.3793103694915771px"/>
          <path id="Stroke-202" d="M274.4,158h3.5a2.11,2.11,0,0,1,2.1,2.13v3.55" transform="translate(-0.2 0)" style="fill: none;stroke: #0b08b2;stroke-linecap: round;stroke-linejoin: round;stroke-width: 1.3793103694915771px"/>
          <path id="Stroke-204" d="M244,172.59v9.73" transform="translate(-0.2 0)" style="fill: none;stroke: #0b08b2;stroke-linecap: round;stroke-linejoin: round;stroke-width: 1.3793103694915771px"/>
          <path id="Stroke-206" d="M261.6,172.59v9.73" transform="translate(-0.2 0)" style="fill: none;stroke: #0b08b2;stroke-linecap: round;stroke-linejoin: round;stroke-width: 1.3793103694915771px"/>
          <path id="Stroke-208" d="M275.2,172.59v9.73" transform="translate(-0.2 0)" style="fill: none;stroke: #0b08b2;stroke-linecap: round;stroke-linejoin: round;stroke-width: 1.3793103694915771px"/>
          <path id="Stroke-210" d="M257.6,172.59v5.68" transform="translate(-0.2 0)" style="fill: none;stroke: #0b08b2;stroke-linecap: round;stroke-linejoin: round;stroke-width: 1.3793103694915771px"/>
          <path id="Stroke-212" d="M257.6,180.7v1.62" transform="translate(-0.2 0)" style="fill: none;stroke: #0b08b2;stroke-linecap: round;stroke-linejoin: round;stroke-width: 1.3793103694915771px"/>
          <path id="Stroke-214" d="M265.6,172.59v5.68" transform="translate(-0.2 0)" style="fill: none;stroke: #0b08b2;stroke-linecap: round;stroke-linejoin: round;stroke-width: 1.3793103694915771px"/>
          <path id="Stroke-216" d="M265.6,180.7v1.62" transform="translate(-0.2 0)" style="fill: none;stroke: #0b08b2;stroke-linecap: round;stroke-linejoin: round;stroke-width: 1.3793103694915771px"/>
          <path id="Stroke-218" d="M271.2,172.59v5.68" transform="translate(-0.2 0)" style="fill: none;stroke: #0b08b2;stroke-linecap: round;stroke-linejoin: round;stroke-width: 1.3793103694915771px"/>
          <path id="Stroke-220" d="M271.2,180.7v1.62" transform="translate(-0.2 0)" style="fill: none;stroke: #0b08b2;stroke-linecap: round;stroke-linejoin: round;stroke-width: 1.3793103694915771px"/>
          <path id="Stroke-222" d="M253.6,172.59v5.68" transform="translate(-0.2 0)" style="fill: none;stroke: #0b08b2;stroke-linecap: round;stroke-linejoin: round;stroke-width: 1.3793103694915771px"/>
          <path id="Stroke-224" d="M253.6,180.7v1.62" transform="translate(-0.2 0)" style="fill: none;stroke: #0b08b2;stroke-linecap: round;stroke-linejoin: round;stroke-width: 1.3793103694915771px"/>
          <path id="Stroke-226" d="M249.6,172.59v5.68" transform="translate(-0.2 0)" style="fill: none;stroke: #0b08b2;stroke-linecap: round;stroke-linejoin: round;stroke-width: 1.3793103694915771px"/>
          <path id="Stroke-228" d="M249.6,180.7v1.62" transform="translate(-0.2 0)" style="fill: none;stroke: #0b08b2;stroke-linecap: round;stroke-linejoin: round;stroke-width: 1.3793103694915771px"/>
          <path id="Stroke-230" d="M275.2,163.68v5.67" transform="translate(-0.2 0)" style="fill: none;stroke: #0b08b2;stroke-linecap: round;stroke-linejoin: round;stroke-width: 1.3793103694915771px"/>
          <path id="Stroke-232" d="M271.2,163.68v5.67" transform="translate(-0.2 0)" style="fill: none;stroke: #0b08b2;stroke-linecap: round;stroke-linejoin: round;stroke-width: 1.3793103694915771px"/>
          <path id="Stroke-234" d="M265.6,163.68v5.67" transform="translate(-0.2 0)" style="fill: none;stroke: #0b08b2;stroke-linecap: round;stroke-linejoin: round;stroke-width: 1.3793103694915771px"/>
          <path id="Stroke-236" d="M261.6,163.68v5.67" transform="translate(-0.2 0)" style="fill: none;stroke: #0b08b2;stroke-linecap: round;stroke-linejoin: round;stroke-width: 1.3793103694915771px"/>
          <path id="Stroke-238" d="M257.6,169.35v-5.67" transform="translate(-0.2 0)" style="fill: none;stroke: #0b08b2;stroke-linecap: round;stroke-linejoin: round;stroke-width: 1.3793103694915771px"/>
          <path id="Stroke-240" d="M253.6,169.35v-5.67" transform="translate(-0.2 0)" style="fill: none;stroke: #0b08b2;stroke-linecap: round;stroke-linejoin: round;stroke-width: 1.3793103694915771px"/>
          <path id="Stroke-242" d="M249.6,169.35v-5.67" transform="translate(-0.2 0)" style="fill: none;stroke: #0b08b2;stroke-linecap: round;stroke-linejoin: round;stroke-width: 1.3793103694915771px"/>
          <path id="Stroke-244" d="M244,169.35v-5.67" transform="translate(-0.2 0)" style="fill: none;stroke: #0b08b2;stroke-linecap: round;stroke-linejoin: round;stroke-width: 1.3793103694915771px"/>
        </g>
        <g id="Matches">
          <path id="Stroke-1793" d="M341.24,245.83v6" transform="translate(-0.2 0)" style="fill: none;stroke: #0b08b2;stroke-linecap: round;stroke-linejoin: round;stroke-width: 1.2105263471603394px"/>
          <path id="Stroke-1794" d="M341.84,245c0,.89-.27.81-.6.81s-.61.08-.61-.81.27-1.61.61-1.61S341.84,244.13,341.84,245Z" transform="translate(-0.2 0)" style="fill: none;stroke: #0b08b2;stroke-linecap: round;stroke-linejoin: round;stroke-width: 1.2105263471603394px"/>
          <path id="Stroke-1796" d="M352.13,245.83v6" transform="translate(-0.2 0)" style="fill: none;stroke: #0b08b2;stroke-linecap: round;stroke-linejoin: round;stroke-width: 1.2105263471603394px"/>
          <path id="Stroke-1798" d="M352.74,245c0,.89-.27.81-.61.81s-.6.08-.6-.81.27-1.61.6-1.61S352.74,244.13,352.74,245Z" transform="translate(-0.2 0)" style="fill: none;stroke: #0b08b2;stroke-linecap: round;stroke-linejoin: round;stroke-width: 1.2105263471603394px"/>
          <path id="Stroke-1800" d="M355.76,245.83v6" transform="translate(-0.2 0)" style="fill: none;stroke: #0b08b2;stroke-linecap: round;stroke-linejoin: round;stroke-width: 1.2105263471603394px"/>
          <path id="Stroke-1802" d="M356.37,245c0,.89-.27.81-.61.81s-.6.08-.6-.81.27-1.61.6-1.61S356.37,244.13,356.37,245Z" transform="translate(-0.2 0)" style="fill: none;stroke: #0b08b2;stroke-linecap: round;stroke-linejoin: round;stroke-width: 1.2105263471603394px"/>
          <path id="Stroke-1804" d="M348.5,245.83v6" transform="translate(-0.2 0)" style="fill: none;stroke: #0b08b2;stroke-linecap: round;stroke-linejoin: round;stroke-width: 1.2105263471603394px"/>
          <path id="Stroke-1806" d="M349.11,245c0,.89-.28.81-.61.81s-.61.08-.61-.81.27-1.61.61-1.61S349.11,244.13,349.11,245Z" transform="translate(-0.2 0)" style="fill: none;stroke: #0b08b2;stroke-linecap: round;stroke-linejoin: round;stroke-width: 1.2105263471603394px"/>
          <path id="Stroke-1808" d="M344.87,245.83v6" transform="translate(-0.2 0)" style="fill: none;stroke: #0b08b2;stroke-linecap: round;stroke-linejoin: round;stroke-width: 1.2105263471603394px"/>
          <path id="Stroke-1810" d="M345.47,245c0,.89-.27.81-.6.81s-.61.08-.61-.81.27-1.61.61-1.61S345.47,244.13,345.47,245Z" transform="translate(-0.2 0)" style="fill: none;stroke: #0b08b2;stroke-linecap: round;stroke-linejoin: round;stroke-width: 1.2105263471603394px"/>
          <path id="Stroke-1812" d="M354,266.19a5.47,5.47,0,0,1-10.9,0,2.72,2.72,0,0,1,0-.28c.09-2.86,1.81-3.59,1.81-3.59s-.07,2.21,1.81,2.21a8.66,8.66,0,0,1,.54-3,7.83,7.83,0,0,1,3.1-3.61c0,3.32,3.27,3.87,3.6,7.76C353.93,265.84,354,266,354,266.19Z" transform="translate(-0.2 0)" style="fill: none;stroke: #0b08b2;stroke-linecap: round;stroke-linejoin: round;stroke-width: 1.2105263471603394px"/>
          <path id="Stroke-1814" d="M358.79,252v-9.16A1.81,1.81,0,0,0,357,241H340a1.81,1.81,0,0,0-1.82,1.81V252" transform="translate(-0.2 0)" style="fill: none;stroke: #0b08b2;stroke-linecap: round;stroke-linejoin: round;stroke-width: 1.2105263471603394px"/>
          <path id="Stroke-1816" d="M358.18,276H338.82a1.81,1.81,0,0,1-1.82-1.81V253.67a1.81,1.81,0,0,1,1.82-1.81h19.36a1.81,1.81,0,0,1,1.82,1.81v20.52A1.81,1.81,0,0,1,358.18,276Z" transform="translate(-0.2 0)" style="fill: none;stroke: #0b08b2;stroke-linecap: round;stroke-linejoin: round;stroke-width: 1.2105263471603394px"/>
        </g>
        <g id="Phone">
          <path id="Stroke-456" d="M270.11,366H249.89a1.91,1.91,0,0,1-1.89-1.91V330.91a1.91,1.91,0,0,1,1.89-1.91h20.22a1.91,1.91,0,0,1,1.89,1.91v33.18A1.91,1.91,0,0,1,270.11,366Z" transform="translate(-0.2 0)" style="fill: none;stroke: #0b08b2;stroke-linecap: round;stroke-linejoin: round;stroke-width: 1.263157844543457px"/>
          <path id="Stroke-458" d="M259.37,331.55h1.26" transform="translate(-0.2 0)" style="fill: none;stroke: #0b08b2;stroke-linecap: round;stroke-linejoin: round;stroke-width: 1.263157844543457px"/>
          <path id="Stroke-460" d="M258.11,363.45h3.78" transform="translate(-0.2 0)" style="fill: none;stroke: #0b08b2;stroke-linecap: round;stroke-linejoin: round;stroke-width: 1.263157844543457px"/>
          <path id="Fill-462" d="M270.11,331.55a.64.64,0,1,1-.64-.64.64.64,0,0,1,.64.64" transform="translate(-0.2 0)" style="fill: none"/>
          <path id="Stroke-464" d="M248,360.9h24" transform="translate(-0.2 0)" style="fill: none;stroke: #0b08b2;stroke-linecap: round;stroke-linejoin: round;stroke-width: 1.263157844543457px"/>
        </g>
        <g id="Geo-Pattern">
          <polyline id="Stroke-1" points="1.13 344.5 87.03 258.52 172.94 344.5 87.03 430.49" style="fill: none;stroke: #ff9811;stroke-width: 1.600000023841858px"/>
          <polygon id="Stroke-3" points="258.84 430.49 172.94 344.5 258.84 258.52 344.75 344.5 258.84 430.49" style="fill: none;stroke: #ff9811;stroke-width: 1.600000023841858px"/>
          <polygon id="Stroke-4" points="344.75 344.5 258.84 258.52 344.75 172.53 430.65 258.52 344.75 344.5" style="fill: none;stroke: #ff9811;stroke-width: 1.600000023841858px"/>
          <polyline id="Stroke-6" points="344.75 516.47 258.84 430.49 344.75 344.5 430.65 430.49" style="fill: none;stroke: #ff9811;stroke-width: 1.600000023841858px"/>
          <polygon id="Stroke-11" points="172.94 344.5 87.03 258.52 172.94 172.53 258.84 258.52 172.94 344.5" style="fill: none;stroke: #ff9811;stroke-width: 1.600000023841858px"/>
          <polygon id="Stroke-12" points="87.03 258.52 1.13 172.53 87.03 86.55 172.94 172.53 87.03 258.52" style="fill: none;stroke: #ff9811;stroke-width: 1.600000023841858px"/>
          <polyline id="Stroke-14" points="172.94 0.56 258.84 86.55 172.94 172.53 87.03 86.55" style="fill: none;stroke: #ff9811;stroke-width: 1.600000023841858px"/>
        </g>
      </g>
    </g>
  </g>
</svg>
