<svg id="Layer_1" data-name="Layer 1" xmlns="http://www.w3.org/2000/svg" viewBox="0 0 122 155">
  <title>icon-chess-2</title>
  <path d="M111.88,153.78l-2.17-8.6a24.36,24.36,0,0,0-4.2-8.73h0a24.85,24.85,0,0,0-19.72-9.77H84.7L75.73,90A75.57,75.57,0,0,0,91.4,84.92a.91.91,0,0,0,0-1.63A77.43,77.43,0,0,0,69.11,77.1,25.28,25.28,0,0,0,85.64,53.22c0-9.22-5.12-28.43-13.48-39.12a10.77,10.77,0,0,0,.32-2.54,11.44,11.44,0,1,0-22.87,0,10.74,10.74,0,0,0,.33,2.54A43.39,43.39,0,0,0,47,18.38h0a.91.91,0,0,0-.53.93c-6.29,10.91-10,26-10,33.91A25.28,25.28,0,0,0,53,77.09a77.29,77.29,0,0,0-22.36,6.2.91.91,0,0,0,0,1.63,74.21,74.21,0,0,0,15.1,5l-9,36.81h-.48a24.87,24.87,0,0,0-19.73,9.77,24.25,24.25,0,0,0-4.19,8.73l-2.17,8.6a.91.91,0,0,0,.16.78.93.93,0,0,0,.72.35H111a.93.93,0,0,0,.72-.35A.91.91,0,0,0,111.88,153.78ZM38.27,53.22c0-8,3.75-21.77,9.11-31.73l9.68,21.86a.9.9,0,0,0,.83.54.83.83,0,0,0,.37-.08.9.9,0,0,0,.46-1.19L48.49,19.52a39.75,39.75,0,0,1,3.15-4.63.91.91,0,0,0,.16-.81,9.78,9.78,0,0,1-.37-2.52,9.62,9.62,0,1,1,19.24,0,9.41,9.41,0,0,1-.38,2.52.94.94,0,0,0,.17.81C78,24.25,83.82,43.19,83.82,53.22c0,12.37-9.34,22.53-21.14,23.39l-1.68,0-1.62,0C47.6,75.73,38.27,65.58,38.27,53.22ZM59.43,78.44q.8.06,1.62.06c.54,0,1.07,0,1.6-.06a76.51,76.51,0,0,1,26.1,5.66A75.65,75.65,0,0,1,61,89.8a75.7,75.7,0,0,1-27.75-5.7A76.66,76.66,0,0,1,59.43,78.44Zm-12,11.8A69.74,69.74,0,0,0,61,91.61a70.42,70.42,0,0,0,13-1.25l8.88,36.32H38.57ZM12.17,153.09l1.88-7.47a22.44,22.44,0,0,1,3.88-8.07,23,23,0,0,1,18.28-9.05h.64a.93.93,0,0,0,.51.18H84a.93.93,0,0,0,.51-.18h1.25a23,23,0,0,1,18.27,9,22.75,22.75,0,0,1,3.89,8.08l1.88,7.47Z" style="fill: #fff"/>
</svg>
