<svg id="Layer_1" data-name="Layer 1" xmlns="http://www.w3.org/2000/svg" viewBox="0 0 122 155">
  <title>icon-eye-2</title>
  <path d="M122,77.19a64.36,64.36,0,0,0-121.9,0,.94.94,0,0,0,0,.62,64.36,64.36,0,0,0,121.9,0A.94.94,0,0,0,122,77.19ZM61,119.5a62,62,0,0,1-58.95-42,62.37,62.37,0,0,1,117.9,0A62,62,0,0,1,61,119.5Z" style="fill: #fff"/>
  <path d="M61,49.88A27.62,27.62,0,1,0,88.9,77.5,27.79,27.79,0,0,0,61,49.88Zm0,53.24A25.62,25.62,0,1,1,86.9,77.5,25.79,25.79,0,0,1,61,103.12Z" style="fill: #fff"/>
  <path d="M60,66.21h7.24a1,1,0,0,0,0-2H62V61.12a1,1,0,0,0-2,0v3.09h0c-3.41,0-6.18,3.21-6.18,7.15S56.56,78.5,60,78.5H62c2.3,0,4.18,2.31,4.18,5.14S64.33,88.79,62,88.79H54.79a1,1,0,0,0,0,2H60v3.09a1,1,0,0,0,2,0V90.79h0c3.41,0,6.18-3.21,6.18-7.15S65.44,76.5,62,76.5H60c-2.31,0-4.18-2.31-4.18-5.14S57.66,66.21,60,66.21Z" style="fill: #fff"/>
</svg>
