<?xml version="1.0" encoding="utf-8"?>
<!-- Generator: Adobe Illustrator 22.0.0, SVG Export Plug-In . SVG Version: 6.00 Build 0)  -->
<svg version="1.1" id="Layer_1" xmlns="http://www.w3.org/2000/svg" xmlns:xlink="http://www.w3.org/1999/xlink" x="0px" y="0px"
	 viewBox="0 0 150 43" style="enable-background:new 0 0 150 43;" xml:space="preserve">
<style type="text/css">
	.st0{filter:url(#Adobe_OpacityMaskFilter);}
	.st1{fill:#FFFFFF;}
	.st2{mask:url(#mask-2_1_);fill:#FFFFFF;}
	.st3{filter:url(#Adobe_OpacityMaskFilter_1_);}
	.st4{mask:url(#mask-4_1_);fill:#FFFFFF;}
</style>
<title>GoCrypto_Logo</title>
<g id="Symbols">
	<g id="Nav_x2F_Header" transform="translate(-87.000000, -58.000000)">
		<g id="GoCrypto_Logo" transform="translate(87.000000, 58.000000)">
			<g id="Group-3" transform="translate(0.000000, 0.369450)">
				<g id="Clip-2">
				</g>
				<defs>
					<filter id="Adobe_OpacityMaskFilter" filterUnits="userSpaceOnUse" x="0" y="0.1" width="28.8" height="42.4">
						<feColorMatrix  type="matrix" values="1 0 0 0 0  0 1 0 0 0  0 0 1 0 0  0 0 0 1 0"/>
					</filter>
				</defs>
				<mask maskUnits="userSpaceOnUse" x="0" y="0.1" width="28.8" height="42.4" id="mask-2_1_">
					<g class="st0">
						<polygon id="path-1_1_" class="st1" points="0,0.1 28.8,0.1 28.8,42.5 0,42.5 						"/>
					</g>
				</mask>
				<path id="Fill-1" class="st2" d="M25.8,30.3c-1.2,0-2.4-0.2-3.4-0.7c-1-0.5-2-1.1-2.7-1.9c-0.8-0.8-1.4-1.8-1.8-2.9
					c-0.4-1.1-0.6-2.3-0.6-3.6c0-1.3,0.2-2.5,0.6-3.6c0.4-1.1,1-2,1.8-2.8c0.8-0.8,1.7-1.4,2.7-1.8c1-0.4,2.2-0.6,3.4-0.6H28
					c0.3,0,0.5,0,0.8,0L16.7,0.1L4.5,12.4c0.3,0,0.6,0,1,0h7.6v3.1H5.5c-0.8,0-1.5,0.1-2.2,0.4c-0.7,0.3-1.3,0.7-1.7,1.2
					c-0.5,0.5-0.9,1.1-1.1,1.8C0.1,19.6,0,20.4,0,21.3c0,0.8,0.1,1.6,0.4,2.3c0.3,0.7,0.7,1.3,1.1,1.9C2,26,2.6,26.4,3.3,26.7
					C4,27,4.7,27.1,5.5,27.1h4.4v-2.8H6.4v-3h6.7v0.9v2.1v2.8v3.1H9.9H5.5c-0.3,0-0.7,0-1-0.1l12.2,12.3l12.1-12.3
					c-0.3,0-0.5,0-0.8,0H25.8z"/>
			</g>
			<path id="Fill-4" class="st1" d="M33.2,19.3c-0.3-0.7-0.7-1.3-1.2-1.8c-0.5-0.5-1.1-0.9-1.8-1.2c-0.7-0.3-1.4-0.4-2.2-0.4h-2.3
				c-0.8,0-1.5,0.1-2.2,0.4c-0.7,0.3-1.3,0.7-1.7,1.2c-0.5,0.5-0.9,1.1-1.1,1.8c-0.3,0.7-0.4,1.5-0.4,2.3c0,0.8,0.1,1.6,0.4,2.3
				c0.3,0.7,0.7,1.3,1.1,1.9c0.5,0.5,1.1,0.9,1.7,1.2c0.7,0.3,1.4,0.4,2.2,0.4H28c0.8,0,1.6-0.1,2.2-0.4c0.7-0.3,1.3-0.7,1.8-1.2
				c0.5-0.5,0.9-1.1,1.2-1.9c0.3-0.7,0.4-1.5,0.4-2.3C33.6,20.8,33.5,20,33.2,19.3"/>
			<path id="Fill-6" class="st1" d="M44,13.4c-1,0.4-2,1-2.7,1.8c-0.8,0.8-1.4,1.7-1.8,2.8c-0.4,1.1-0.6,2.3-0.6,3.6
				c0,1.3,0.2,2.5,0.6,3.6c0.4,1.1,1,2.1,1.8,2.9c0.8,0.8,1.7,1.5,2.7,1.9c1,0.5,2.2,0.7,3.4,0.7H55v-3.1h-7.6
				c-0.8,0-1.5-0.1-2.2-0.4c-0.7-0.3-1.3-0.7-1.7-1.2c-0.5-0.5-0.9-1.1-1.1-1.9c-0.3-0.7-0.4-1.5-0.4-2.3c0-0.9,0.1-1.6,0.4-2.3
				c0.3-0.7,0.7-1.3,1.1-1.8c0.5-0.5,1.1-0.9,1.7-1.2c0.7-0.3,1.4-0.4,2.2-0.4H55v-3.1h-7.6C46.2,12.7,45.1,12.9,44,13.4"/>
			<path id="Fill-8" class="st1" d="M109.3,21.7c-0.6,0.6-1.5,0.9-2.5,0.9h-6.3v-6.8h6.3c1.1,0,1.9,0.3,2.5,0.9
				c0.6,0.6,0.9,1.4,0.9,2.5C110.2,20.3,109.9,21.1,109.3,21.7 M111.5,14.5c-0.6-0.6-1.2-1-2-1.3c-0.8-0.3-1.7-0.5-2.7-0.5h-9.4
				v17.9h3.1v-5h6.3c1,0,1.9-0.2,2.7-0.5c0.8-0.3,1.5-0.8,2-1.3c0.6-0.6,1-1.3,1.3-2.1c0.3-0.8,0.4-1.7,0.4-2.6c0-1-0.1-1.9-0.4-2.7
				C112.5,15.7,112.1,15,111.5,14.5"/>
			<polygon id="Fill-10" class="st1" points="114.4,15.9 120.6,15.9 120.6,30.6 123.7,30.6 123.7,15.9 129.9,15.9 129.9,12.7 
				114.4,12.7 			"/>
			<g id="Group-14" transform="translate(129.702970, 12.369450)">
				<g id="Clip-13">
				</g>
				<defs>
					<filter id="Adobe_OpacityMaskFilter_1_" filterUnits="userSpaceOnUse" x="0.3" y="0.4" width="19.6" height="17.9">
						<feColorMatrix  type="matrix" values="1 0 0 0 0  0 1 0 0 0  0 0 1 0 0  0 0 0 1 0"/>
					</filter>
				</defs>
				<mask maskUnits="userSpaceOnUse" x="0.3" y="0.4" width="19.6" height="17.9" id="mask-4_1_">
					<g class="st3">
						<polygon id="path-3_1_" class="st1" points="0.3,0.4 19.9,0.4 19.9,18.3 0.3,18.3 						"/>
					</g>
				</mask>
				<path id="Fill-12" class="st4" d="M16.3,11.6c-0.3,0.7-0.7,1.3-1.2,1.9c-0.5,0.5-1.1,0.9-1.8,1.2c-0.7,0.3-1.4,0.4-2.2,0.4H8.9
					c-0.8,0-1.5-0.1-2.2-0.4C6,14.4,5.4,14,4.9,13.5c-0.5-0.5-0.9-1.1-1.1-1.9c-0.3-0.7-0.4-1.5-0.4-2.3c0-0.9,0.1-1.6,0.4-2.3
					c0.3-0.7,0.7-1.3,1.1-1.8C5.4,4.6,6,4.2,6.7,3.9c0.7-0.3,1.4-0.4,2.2-0.4h2.3c0.8,0,1.6,0.1,2.2,0.4c0.7,0.3,1.3,0.7,1.8,1.2
					c0.5,0.5,0.9,1.1,1.2,1.8c0.3,0.7,0.4,1.5,0.4,2.3C16.8,10.1,16.6,10.9,16.3,11.6 M19.2,5.6c-0.4-1.1-1-2-1.8-2.8
					C16.7,2,15.8,1.4,14.7,1c-1.1-0.4-2.2-0.6-3.5-0.6H8.9C7.7,0.4,6.5,0.6,5.5,1c-1,0.4-2,1-2.7,1.8C2,3.5,1.4,4.5,0.9,5.5
					C0.5,6.6,0.3,7.8,0.3,9.1c0,1.3,0.2,2.5,0.6,3.6c0.4,1.1,1,2.1,1.8,2.9c0.8,0.8,1.7,1.5,2.7,1.9c1,0.5,2.2,0.7,3.4,0.7h2.3
					c1.3,0,2.4-0.2,3.5-0.7c1.1-0.5,2-1.1,2.7-1.9c0.8-0.8,1.4-1.8,1.8-2.9c0.4-1.1,0.6-2.3,0.6-3.6C19.9,7.8,19.6,6.6,19.2,5.6"/>
			</g>
			<polygon id="Fill-15" class="st1" points="85.6,21 79.3,12.7 75.1,12.7 84,23.8 84,30.6 87.1,30.6 87.1,23.8 96,12.7 92,12.7 			
				"/>
			<path id="Fill-17" class="st1" d="M61.6,15.9h6.3c1.1,0,1.9,0.3,2.6,0.9c0.6,0.6,0.9,1.4,0.9,2.5c0,1-0.3,1.8-0.9,2.5
				c-0.6,0.6-1.5,0.9-2.6,0.9h-6.3V15.9z M72.7,23.8c0.6-0.6,1-1.3,1.3-2.1c0.3-0.8,0.4-1.7,0.4-2.6c0-1-0.1-1.9-0.4-2.7
				c-0.3-0.8-0.7-1.5-1.3-2c-0.6-0.6-1.2-1-2-1.3c-0.8-0.3-1.7-0.5-2.7-0.5h-9.4v17.9h3.1v-5h6.3l3.4,5h4l-3.9-5.8
				C71.8,24.6,72.3,24.2,72.7,23.8z"/>
		</g>
	</g>
</g>
</svg>
